<svg id="Слой_1" data-name="Слой 1" xmlns="http://www.w3.org/2000/svg" viewBox="0 0 80 79.8"><defs><style>.cls-1{fill:none;}</style></defs><title>Artboard 1</title><path class="cls-1" d="M45.3,10.6V40.8L67.2,20A33.28,33.28,0,0,0,45.3,10.6Z"/><path class="cls-1" d="M2.6,34.6h32V2.6A33.48,33.48,0,0,0,2.6,34.6Zm8-2.7H7.9V29.2h2.7Zm18.6-24h2.7v2.7H29.2Zm0,5.4h2.7V16H29.2Zm0,5.3h2.7v2.7H29.2Zm0,5.3h2.7v2.7H29.2Zm0,5.4h2.7V32H29.2Zm-5.3-16h2.7V16H23.9Zm0,5.3h2.7v2.7H23.9Zm0,5.3h2.7v2.7H23.9Zm0,5.4h2.7V32H23.9ZM18.6,18.6h2.7v2.7H18.6Zm0,5.3h2.7v2.7H18.6Zm0,5.4h2.7V32H18.6Zm-5.4-5.4h2.7v2.7H13.2Zm0,5.4h2.7V32H13.2Z"/><path class="cls-1" d="M68.9,22,44.8,44.9a1,1,0,0,1-.9.4H10.6A33.27,33.27,0,1,0,68.9,22Z"/><rect x="18.6" y="18.6" width="2.7" height="2.7"/><rect x="18.6" y="23.9" width="2.7" height="2.7"/><rect x="23.9" y="29.3" width="2.7" height="2.7"/><path d="M43.9,7.9a1.32,1.32,0,0,0-1.3,1.3V42.5H9.3A1.32,1.32,0,0,0,8,43.8,36,36,0,1,0,43.9,7.9Zm1.4,2.7A33.28,33.28,0,0,1,67.2,20L45.3,40.8ZM43.9,77.3a33.36,33.36,0,0,1-33.3-32H43.9a1,1,0,0,0,.9-.4L68.9,22a33.39,33.39,0,0,1-25,55.3Z"/><rect x="23.9" y="23.9" width="2.7" height="2.7"/><path d="M37.3,35.9V1.3A1.32,1.32,0,0,0,36,0,36,36,0,0,0,0,36a1.32,1.32,0,0,0,1.3,1.3H36A1.35,1.35,0,0,0,37.3,35.9Zm-2.7-1.3H2.6a33.48,33.48,0,0,1,32-32Z"/><rect x="13.2" y="23.9" width="2.7" height="2.7"/><rect x="13.2" y="29.3" width="2.7" height="2.7"/><rect x="18.6" y="29.3" width="2.7" height="2.7"/><rect x="29.2" y="7.9" width="2.7" height="2.7"/><rect x="23.9" y="18.6" width="2.7" height="2.7"/><rect x="7.9" y="29.2" width="2.7" height="2.7"/><rect x="29.2" y="18.6" width="2.7" height="2.7"/><rect x="29.2" y="13.3" width="2.7" height="2.7"/><rect x="23.9" y="13.3" width="2.7" height="2.7"/><rect x="29.2" y="23.9" width="2.7" height="2.7"/><rect x="29.2" y="29.3" width="2.7" height="2.7"/></svg>