<svg id="Слой_1" data-name="Слой 1" xmlns="http://www.w3.org/2000/svg" viewBox="0 0 80 80.1"><defs><style>.cls-1{fill:none;}</style></defs><title>Artboard 1</title><polygon class="cls-1" points="56.7 2.6 19.9 2.6 34.2 23.9 70.9 23.9 56.7 2.6"/><path class="cls-1" d="M2.8,57.3a4,4,0,0,0,4,4H9.5V42.6a1.32,1.32,0,0,1,1.3-1.3H24.1a1.32,1.32,0,0,1,1.3,1.3V61.3h6.7V26.6H2.8Z"/><rect class="cls-1" x="12.1" y="43.9" width="10.7" height="17.4"/><polygon class="cls-1" points="17.5 3.7 4 24 31 24 17.5 3.7"/><path class="cls-1" d="M49.5,29.3H72.1V26.6H34.8V61.3h2.7v-20A6.48,6.48,0,0,1,43,34.8,6.57,6.57,0,0,1,49.5,29.3Z"/><path class="cls-1" d="M62.8,45.3v-8H44.1a4,4,0,0,0-4,4v32a4,4,0,0,0,4,4h24a4,4,0,0,0,4-4V46.6h-8A1.32,1.32,0,0,1,62.8,45.3ZM48.9,72.8a1.09,1.09,0,0,1-.9.4,1.22,1.22,0,0,1-.9-.4l-4-4L45,66.9,48.1,70,55,62.9l1.9,1.9Zm0-10.6a1.09,1.09,0,0,1-.9.4,1.22,1.22,0,0,1-.9-.4l-4-4L45,56.3l3.1,3.1L55,52.3l1.9,1.9Zm9.9-12.9H44.1V46.6H58.8Zm0-5.4H44.1V41.2H58.8Zm9.3,29.4h-8V70.6h8Zm0-5.4h-8V65.2h8Zm0-8h-8V57.2h8Zm0-5.3h-8V51.9h8Z"/><polygon class="cls-1" points="65.5 43.9 70.3 43.9 65.5 39.1 65.5 43.9"/><path class="cls-1" d="M73.5,32h-24a4.14,4.14,0,0,0-3.8,2.7H64.2a1.49,1.49,0,0,1,.9.4l9.3,9.3a1.27,1.27,0,0,1,.4.9V71.7a4.09,4.09,0,0,0,2.7-3.8V36A4,4,0,0,0,73.5,32Z"/><rect x="60.1" y="70.6" width="8" height="2.7"/><rect x="44.1" y="41.2" width="14.7" height="2.7"/><rect x="44.1" y="46.6" width="14.7" height="2.7"/><rect x="60.1" y="65.2" width="8" height="2.7"/><path d="M74.8,29.4V25.3c0-.2,0-.3-.1-.4a.1.1,0,0,0-.1-.1c0-.1,0-.1-.1-.2L58.5.6A1.25,1.25,0,0,0,57.4,0h-40a1.38,1.38,0,0,0-1.1.6l-16,24a.31.31,0,0,1-.1.2.1.1,0,0,1-.1.1.75.75,0,0,0-.1.5v32a6.7,6.7,0,0,0,6.7,6.7H37.3v9.3A6.7,6.7,0,0,0,44,80.1H68a6.57,6.57,0,0,0,6.5-5.5A6.73,6.73,0,0,0,80,68.1v-32A6.53,6.53,0,0,0,74.8,29.4ZM17.5,3.7,31,24H4Zm5.3,57.6H12.1V43.9H22.8Zm9.3,0H25.4V42.6a1.32,1.32,0,0,0-1.3-1.3H10.8a1.32,1.32,0,0,0-1.3,1.3V61.3H6.8a4,4,0,0,1-4-4V26.6H32.1ZM19.9,2.6H56.7L70.9,23.9H34.2ZM37.5,41.3v20H34.8V26.6H72.1v2.7H49.5A6.57,6.57,0,0,0,43,34.8,6.48,6.48,0,0,0,37.5,41.3Zm34.6,32a4,4,0,0,1-4,4h-24a4,4,0,0,1-4-4v-32a4,4,0,0,1,4-4H62.8v8a1.32,1.32,0,0,0,1.3,1.3h8ZM65.5,43.9V39.1l4.8,4.8Zm12,24a4.09,4.09,0,0,1-2.7,3.8V45.3a1.27,1.27,0,0,0-.4-.9l-9.3-9.3a1.49,1.49,0,0,0-.9-.4H45.7A4.14,4.14,0,0,1,49.5,32h24a4,4,0,0,1,4,4Z"/><rect x="60.1" y="51.9" width="8" height="2.7"/><rect x="60.1" y="57.2" width="8" height="2.7"/><rect x="26.8" y="71.9" width="2.7" height="2.7"/><rect x="16.1" y="66.6" width="2.7" height="2.7"/><path d="M48.1,59.4,45,56.3l-1.9,1.9,4,4a1.22,1.22,0,0,0,.9.4,1.09,1.09,0,0,0,.9-.4l8-8L55,52.3Z"/><rect x="16.1" y="71.9" width="2.7" height="2.7"/><rect x="21.5" y="71.9" width="2.7" height="2.7"/><path d="M48.1,70,45,66.9l-1.9,1.9,4,4a1.22,1.22,0,0,0,.9.4,1.09,1.09,0,0,0,.9-.4l8-8L55,62.9Z"/><rect x="32.1" y="71.9" width="2.7" height="2.7"/></svg>