<svg id="Layer_1" data-name="Layer 1" xmlns="http://www.w3.org/2000/svg" viewBox="0 0 20 20"><defs><style>.cls-1{fill:none;}</style></defs><title>Artboard 1</title><path class="cls-1" d="M10,1.82A8.18,8.18,0,1,0,18.18,10,8.18,8.18,0,0,0,10,1.82Zm.91,13a.91.91,0,0,1-1.82,0V9.39A.91.91,0,0,1,10,8.48h0a.91.91,0,0,1,.91.91Zm.3-9.39A1.22,1.22,0,1,1,10,4.24h0a1.21,1.21,0,0,1,1.21,1.21Z"/><path d="M10,0A10,10,0,1,0,20,10,10,10,0,0,0,10,0Zm0,18.18A8.18,8.18,0,1,1,18.18,10,8.18,8.18,0,0,1,10,18.18Z"/><path d="M10,8.48h0a.91.91,0,0,0-.91.91v5.46a.91.91,0,0,0,1.82,0V9.39A.91.91,0,0,0,10,8.48Z"/><path d="M10,4.24h0a1.22,1.22,0,1,0,1.21,1.22h0A1.21,1.21,0,0,0,10,4.24Z"/></svg>