<svg id="Слой_1" data-name="Слой 1" xmlns="http://www.w3.org/2000/svg" viewBox="0 0 80.1 80"><defs><style>.cls-1{fill:none;}</style></defs><title>Artboard 1</title><path class="cls-1" d="M49.5,44.7a11.75,11.75,0,0,1-3-7.9V32.7a5.28,5.28,0,0,1-1.3.1V30.1c9.5,0,17.3-5.9,17.3-13.3h2.7a13.52,13.52,0,0,1-1.3,5.6,6.55,6.55,0,0,0,6.6,6.4v7.9a11.75,11.75,0,0,1-3,7.9,12,12,0,0,1,5.7,3.9V26a15.3,15.3,0,0,0-30.6,0h-.2V50.5h.1A12.58,12.58,0,0,1,49.5,44.7Z"/><path class="cls-1" d="M28,10.7v2.7a6.65,6.65,0,0,0,5.3,6.5V9.4a6.7,6.7,0,0,0-6.7-6.7H2.6V4A5.36,5.36,0,0,0,7.9,9.4H26.7A1.32,1.32,0,0,1,28,10.7Z"/><path class="cls-1" d="M16.3,34.7a5.36,5.36,0,0,0,1.1.5h.1c.3.1.7.2,1.1.3h.1c.4.1.7.1,1.1.2h.1a3.4,3.4,0,0,0,1,.1h1.6c.3,0,.5-.1.8-.1a.6.6,0,0,1,.4-.1c.2-.1.5-.1.7-.2s.3-.1.5-.1a1.42,1.42,0,0,0,.6-.2,12,12,0,0,0,7.8-11.2V22.5a9.28,9.28,0,0,1-8-9.2V12H9.3V24A11.53,11.53,0,0,0,16.3,34.7Zm6.3-5.3a4,4,0,0,0,4-4h2.7a6.83,6.83,0,0,1-6.7,6.7Z"/><path class="cls-1" d="M16.1,77.4h6.5V70.9A8,8,0,0,0,16.1,77.4Z"/><path class="cls-1" d="M62,25.5a20.9,20.9,0,0,1-12.7,6.9v4.3A9.3,9.3,0,0,0,64,44.3a9.65,9.65,0,0,0,4-7.6V31A9.9,9.9,0,0,1,62,25.5ZM59.9,42.7V40a2.52,2.52,0,0,0,2.6-2.6h2.7A5.34,5.34,0,0,1,59.9,42.7Z"/><path class="cls-1" d="M37.3,68h4V56a10.32,10.32,0,0,1,.4-3l-4.4-.7Z"/><path class="cls-1" d="M71.9,54.8a1.32,1.32,0,0,0-1.3,1.3v5.3a1.32,1.32,0,0,0,1.3,1.3h5.3V54.8H71.9Z"/><path class="cls-1" d="M34.6,50.5a1.39,1.39,0,0,1,.5-1,1.13,1.13,0,0,1,1.1-.3l3.8.6V40.9L26.6,37.6c-.2.1-.3.1-.5.2a6.37,6.37,0,0,0-.7.2c-.2.1-.5.1-.7.2a2.35,2.35,0,0,1-.8.2c-.2,0-.4.1-.6.1s-.6.1-.9.1H20.5c-.4,0-.7-.1-1.1-.1h-.2a5.07,5.07,0,0,1-1.3-.2h-.1c-.4-.1-.9-.3-1.3-.4h-.1a5,5,0,0,1-1.3-.5h-.6a9.35,9.35,0,0,0-9.3,9.3V73.4a4,4,0,0,0,4,4h4.1a11.13,11.13,0,0,1,10.6-9.6H34.6Zm-12,4.2H19.9V52h2.7Zm0-5.3H19.9V46.7h2.7Zm0-5.4H19.9V41.3h2.7Z"/><path class="cls-1" d="M68,61.3V56a4,4,0,0,1,4-4h.4a9.38,9.38,0,0,0-7.3-5.3,12.07,12.07,0,0,1-13,0A9.47,9.47,0,0,0,43.9,56V69.4a1.32,1.32,0,0,1-1.3,1.3H25.3v6.7h44a4,4,0,0,0,4-4V65.3H72A4,4,0,0,1,68,61.3Z"/><rect x="19.9" y="41.3" width="2.7" height="2.7"/><rect x="19.9" y="46.7" width="2.7" height="2.7"/><path d="M78.6,52H75.9V26a18,18,0,0,0-36,0V38.3l-10-2.5a14.82,14.82,0,0,0,6-11.8V9.3A9.35,9.35,0,0,0,26.6,0H1.3A1.32,1.32,0,0,0,0,1.3V4a8.05,8.05,0,0,0,6.7,7.9V24a14.39,14.39,0,0,0,5.1,11A12,12,0,0,0,2.7,46.6V73.3A6.7,6.7,0,0,0,9.4,80h60a6.7,6.7,0,0,0,6.7-6.7v-8h2.7A1.32,1.32,0,0,0,80.1,64V53.4A1.68,1.68,0,0,0,78.6,52ZM42.4,26h.2a15.3,15.3,0,0,1,30.6,0V48.5a12,12,0,0,0-5.7-3.9,11.75,11.75,0,0,0,3-7.9V28.8a6.55,6.55,0,0,1-6.6-6.4,13.52,13.52,0,0,0,1.3-5.6H62.5c0,7.4-7.8,13.3-17.3,13.3v2.7a5.28,5.28,0,0,0,1.3-.1v4.1a11.75,11.75,0,0,0,3,7.9,12.58,12.58,0,0,0-7,5.8h-.1ZM64,44.3a9.3,9.3,0,0,1-14.7-7.6V32.4A20.9,20.9,0,0,0,62,25.5,9.9,9.9,0,0,0,68,31v5.7A9.65,9.65,0,0,1,64,44.3ZM2.6,4V2.7h24a6.7,6.7,0,0,1,6.7,6.7V19.9A6.65,6.65,0,0,1,28,13.4V10.7a1.32,1.32,0,0,0-1.3-1.3H7.9A5.36,5.36,0,0,1,2.6,4ZM9.3,24V12h16v1.3a9.28,9.28,0,0,0,8,9.2v1.4a12,12,0,0,1-7.8,11.2,1.42,1.42,0,0,1-.6.2c-.2,0-.3.1-.5.1s-.5.1-.7.2a.6.6,0,0,0-.4.1c-.3,0-.5.1-.8.1H20.9a3.4,3.4,0,0,1-1-.1h-.1c-.4-.1-.7-.1-1.1-.2h-.1c-.4-.1-.8-.2-1.1-.3h-.1a5.36,5.36,0,0,1-1.1-.5A11.53,11.53,0,0,1,9.3,24ZM22.6,77.4H16.1a8,8,0,0,1,6.5-6.5Zm1.3-9.6a11.13,11.13,0,0,0-10.6,9.6H9.2a4,4,0,0,1-4-4V46.7a9.35,9.35,0,0,1,9.3-9.3h.6a5,5,0,0,0,1.3.5h.1c.4.1.9.3,1.3.4h.1a5.07,5.07,0,0,0,1.3.2h.2c.4,0,.7.1,1.1.1h1.9c.3,0,.6-.1.9-.1s.4-.1.6-.1a2.35,2.35,0,0,0,.8-.2c.2-.1.5-.1.7-.2a6.37,6.37,0,0,1,.7-.2c.2-.1.3-.1.5-.2L40,40.9v8.9l-3.8-.6a1.13,1.13,0,0,0-1.1.3,1.39,1.39,0,0,0-.5,1V67.8ZM41.7,53a10.32,10.32,0,0,0-.4,3V68h-4V52.3ZM73.3,73.4a4,4,0,0,1-4,4h-44V70.7H42.6a1.32,1.32,0,0,0,1.3-1.3V56a9.47,9.47,0,0,1,8.2-9.3,12.07,12.07,0,0,0,13,0A9.38,9.38,0,0,1,72.4,52H72a4,4,0,0,0-4,4v5.3a4,4,0,0,0,4,4h1.3Zm3.9-10.7H71.9a1.32,1.32,0,0,1-1.3-1.3V56.1a1.32,1.32,0,0,1,1.3-1.3h5.3Z"/><rect x="19.9" y="52" width="2.7" height="2.7"/><path d="M29.3,25.4H26.6a4,4,0,0,1-4,4v2.7A6.83,6.83,0,0,0,29.3,25.4Z"/><path d="M59.9,40v2.7a5.34,5.34,0,0,0,5.3-5.3H62.5A2.52,2.52,0,0,1,59.9,40Z"/></svg>