<?xml version="1.0" encoding="utf-8"?>
<!-- Generator: Adobe Illustrator 22.0.0, SVG Export Plug-In . SVG Version: 6.00 Build 0)  -->
<svg version="1.1" id="Слой_1" xmlns="http://www.w3.org/2000/svg" xmlns:xlink="http://www.w3.org/1999/xlink" x="0px" y="0px"
	 viewBox="0 0 680.3 158.7" style="enable-background:new 0 0 680.3 158.7;" xml:space="preserve">
<style type="text/css">
	.st0{fill:#F1F1F2;}
	.st1{fill:#1F2252;}
	.st2{fill:#FFFFFF;}
	.st3{fill:#058FC3;}
	.st4{fill:#F92B2B;}
</style>
<g>
	<g>
		<rect x="0.6" y="0.7" class="st3" width="157.3" height="157.3"/>
		<g>
			<polygon class="st2" points="30.1,49.8 30.1,25.6 54.3,25.6 			"/>
			<polygon class="st2" points="67.2,49.8 67.2,25.6 91.4,25.6 			"/>
			<polygon class="st2" points="104.3,49.8 104.3,25.6 128.5,25.6 			"/>
			<polygon class="st2" points="30.1,86.9 30.1,62.7 54.3,62.7 			"/>
			<polygon class="st2" points="66.1,92.6 66.1,66.2 92.5,66.2 			"/>
			<polygon class="st2" points="106.7,92.6 106.7,66.2 133.1,66.2 			"/>
			<polygon class="st2" points="25.5,133.1 25.5,106.7 51.9,106.7 			"/>
			<polygon class="st2" points="66.1,133.1 66.1,106.7 92.5,106.7 			"/>
		</g>
		<g>
			<path class="st1" d="M239.3,27v39.2H232V49.4h-20.3v16.8h-7.3V27h7.3v16.2H232V27H239.3z"/>
			<path class="st1" d="M254.6,64.6c-2.4-1.3-4.3-3.1-5.7-5.5c-1.4-2.3-2-5-2-7.9c0-2.9,0.7-5.6,2-7.9c1.4-2.3,3.3-4.1,5.7-5.4
				c2.4-1.3,5.2-2,8.2-2c3.1,0,5.8,0.7,8.2,2c2.4,1.3,4.3,3.1,5.7,5.4c1.4,2.3,2,4.9,2,7.9c0,2.9-0.7,5.6-2,7.9
				c-1.4,2.3-3.3,4.2-5.7,5.5c-2.4,1.3-5.2,2-8.2,2C259.8,66.6,257.1,65.9,254.6,64.6z M269.2,58c1.7-1.7,2.5-4,2.5-6.8
				c0-2.8-0.8-5.1-2.5-6.8c-1.7-1.7-3.8-2.6-6.4-2.6s-4.7,0.9-6.4,2.6c-1.7,1.7-2.5,4-2.5,6.8c0,2.8,0.8,5.1,2.5,6.8
				c1.7,1.7,3.8,2.6,6.4,2.6S267.5,59.7,269.2,58z"/>
			<path class="st1" d="M332.4,39.2c2.2,2.2,3.3,5.5,3.3,9.8v17.1h-7V49.9c0-2.6-0.6-4.6-1.7-5.9c-1.2-1.3-2.8-2-5-2
				c-2.4,0-4.2,0.8-5.7,2.3c-1.4,1.5-2.1,3.8-2.1,6.6v15.2h-7V49.9c0-2.6-0.6-4.6-1.7-5.9c-1.2-1.3-2.8-2-5-2
				c-2.4,0-4.3,0.8-5.7,2.3c-1.4,1.5-2.1,3.8-2.1,6.7v15.2h-7V36.3h6.7v3.8c1.1-1.3,2.5-2.4,4.2-3.1c1.7-0.7,3.5-1.1,5.6-1.1
				c2.2,0,4.2,0.4,6,1.3c1.7,0.8,3.1,2.1,4.1,3.7c1.2-1.6,2.8-2.8,4.8-3.7c1.9-0.9,4.1-1.3,6.4-1.3C327.2,35.9,330.2,37,332.4,39.2z
				"/>
			<path class="st1" d="M373.4,36.3v29.9h-6.7v-3.9c-1.2,1.4-2.6,2.5-4.3,3.2c-1.7,0.7-3.6,1.1-5.6,1.1c-2.9,0-5.5-0.6-7.8-1.9
				c-2.3-1.3-4.1-3.1-5.4-5.4c-1.3-2.3-1.9-5-1.9-8.1c0-3.1,0.6-5.7,1.9-8c1.3-2.3,3.1-4.1,5.4-5.3c2.3-1.3,4.9-1.9,7.8-1.9
				c1.9,0,3.7,0.3,5.3,1s3,1.7,4.2,3v-3.6H373.4z M364,58c1.7-1.7,2.5-4,2.5-6.8c0-2.8-0.8-5.1-2.5-6.8c-1.7-1.7-3.8-2.6-6.4-2.6
				s-4.7,0.9-6.4,2.6c-1.7,1.7-2.5,4-2.5,6.8c0,2.8,0.8,5.1,2.5,6.8c1.7,1.7,3.8,2.6,6.4,2.6S362.3,59.7,364,58z"/>
			<path class="st1" d="M405.6,37.8c2.3,1.3,4.1,3.1,5.4,5.4c1.3,2.3,1.9,5,1.9,8.1c0,3-0.6,5.7-1.8,8c-1.2,2.3-3,4.1-5.2,5.4
				c-2.2,1.3-4.8,1.9-7.7,1.9c-4.1,0-7.4-1.3-9.7-4V77h-7.1V51.3c0-3,0.7-5.7,2-8c1.3-2.3,3.2-4.1,5.6-5.4s5.2-1.9,8.4-1.9
				C400.6,35.9,403.3,36.6,405.6,37.8z M403.6,58c1.6-1.7,2.5-4,2.5-6.7c0-2.8-0.8-5-2.5-6.8c-1.6-1.8-3.8-2.6-6.4-2.6
				c-2.7,0-4.8,0.9-6.4,2.6c-1.6,1.7-2.4,4-2.4,6.8c0,2.8,0.8,5.1,2.4,6.8s3.7,2.6,6.4,2.6C399.8,60.6,402,59.8,403.6,58z"/>
			<path class="st1" d="M448.3,36.3v29.9h-6.7v-3.8c-1.1,1.3-2.5,2.4-4.2,3.1c-1.7,0.7-3.5,1.1-5.4,1.1c-4,0-7.1-1.1-9.5-3.3
				c-2.3-2.2-3.5-5.5-3.5-9.9V36.3h7v16.1c0,2.7,0.6,4.7,1.8,6c1.2,1.3,3,2,5.2,2c2.5,0,4.4-0.8,5.9-2.3c1.5-1.5,2.2-3.8,2.2-6.7
				V36.3H448.3z"/>
			<path class="st1" d="M486.9,36.3v29.9h-6.7v-3.9c-1.2,1.4-2.6,2.5-4.3,3.2c-1.7,0.7-3.6,1.1-5.6,1.1c-2.9,0-5.5-0.6-7.8-1.9
				c-2.3-1.3-4.1-3.1-5.4-5.4c-1.3-2.3-1.9-5-1.9-8.1c0-3.1,0.6-5.7,1.9-8c1.3-2.3,3.1-4.1,5.4-5.3c2.3-1.3,4.9-1.9,7.8-1.9
				c1.9,0,3.7,0.3,5.3,1s3,1.7,4.2,3v-3.6H486.9z M477.5,58c1.7-1.7,2.5-4,2.5-6.8c0-2.8-0.8-5.1-2.5-6.8c-1.7-1.7-3.8-2.6-6.4-2.6
				s-4.7,0.9-6.4,2.6c-1.7,1.7-2.5,4-2.5,6.8c0,2.8,0.8,5.1,2.5,6.8c1.7,1.7,3.8,2.6,6.4,2.6S475.8,59.7,477.5,58z"/>
			<path class="st1" d="M523.3,36.3v29.9h-7v-24h-11.2l-0.3,5.9c-0.2,4-0.6,7.3-1.1,9.9c-0.5,2.7-1.5,4.8-2.7,6.3
				c-1.3,1.5-3.1,2.3-5.3,2.3c-1,0-2.3-0.2-3.9-0.6l0.3-5.9c0.5,0.1,1,0.2,1.3,0.2c1.4,0,2.5-0.6,3.2-1.7c0.7-1.1,1.2-2.5,1.4-4.1
				c0.2-1.6,0.4-3.9,0.5-6.8l0.5-11.5H523.3z"/>
			<path class="st1" d="M535.6,63.8c-2.4-2.1-3.5-5.1-3.5-9V36.3h6.9V47c1-0.8,2.2-1.4,3.8-1.8s3.3-0.7,5.2-0.7
				c3.7,0,6.6,0.9,8.7,2.8c2.1,1.9,3.1,4.5,3.1,8c0,3.7-1.3,6.6-3.8,8.6c-2.5,2.1-6,3.1-10.4,3.1C541.3,67,537.9,65.9,535.6,63.8z
				 M550.9,60.1c1.2-1.2,1.8-2.7,1.8-4.6c0-1.9-0.6-3.3-1.8-4.4c-1.2-1.1-2.8-1.6-5-1.6c-1.6,0-3,0.3-4.2,0.9
				c-1.2,0.6-2.1,1.4-2.8,2.5v2.5c0,2,0.6,3.5,1.8,4.7c1.2,1.2,2.9,1.7,5,1.7C548,61.8,549.6,61.2,550.9,60.1z"/>
			<path class="st1" d="M566.2,36.3h7v12.2h15.1V36.3h7v29.9h-7V54.4h-15.1v11.8h-7V36.3z"/>
			<path class="st1" d="M607.4,63.8c-2.3-2.1-3.4-5.1-3.4-9.1V36.3h6.9V47c0.9-0.7,2-1.3,3.5-1.8c1.5-0.5,3.2-0.7,5.1-0.7
				c3.7,0,6.5,0.9,8.6,2.8c2.1,1.9,3.1,4.5,3.1,8c0,3.7-1.2,6.5-3.7,8.6c-2.4,2.1-5.7,3.1-9.9,3.1C613.1,67,609.7,65.9,607.4,63.8z
				 M622.4,60c1.1-1.2,1.7-2.8,1.7-4.6c0-1.8-0.6-3.2-1.7-4.3c-1.1-1.1-2.8-1.6-4.8-1.6c-1.5,0-2.9,0.3-4,0.9
				c-1.1,0.6-2,1.4-2.6,2.5v2.5c0,2,0.6,3.6,1.7,4.7c1.2,1.1,2.8,1.7,5,1.7C619.7,61.8,621.3,61.2,622.4,60z M634.9,36.3h7v29.9h-7
				V36.3z"/>
			<path class="st1" d="M679.7,36.3v29.9H673v-3.8c-1.1,1.3-2.5,2.4-4.2,3.1c-1.7,0.7-3.5,1.1-5.4,1.1c-4,0-7.1-1.1-9.5-3.3
				c-2.3-2.2-3.5-5.5-3.5-9.9V36.3h7v16.1c0,2.7,0.6,4.7,1.8,6c1.2,1.3,3,2,5.2,2c2.5,0,4.4-0.8,5.9-2.3c1.5-1.5,2.2-3.8,2.2-6.7
				V36.3H679.7z M658.1,30.6c-1.6-1.4-2.4-3.4-2.4-6.1h4.6c0,1.3,0.5,2.4,1.3,3.2c0.8,0.8,1.9,1.2,3.4,1.2c1.4,0,2.5-0.4,3.4-1.2
				c0.8-0.8,1.3-1.8,1.3-3.2h4.8c0,2.7-0.9,4.7-2.5,6.1c-1.6,1.4-3.9,2.1-6.9,2.1C662,32.7,659.7,32,658.1,30.6z"/>
			<path class="st1" d="M250.4,106.4c2.2,2.2,3.3,5.5,3.3,9.8v17.1h-7v-16.2c0-2.6-0.6-4.6-1.7-5.9c-1.2-1.3-2.8-2-5-2
				c-2.4,0-4.2,0.8-5.7,2.3c-1.4,1.5-2.1,3.8-2.1,6.6v15.2h-7v-16.2c0-2.6-0.6-4.6-1.7-5.9c-1.2-1.3-2.8-2-5-2
				c-2.4,0-4.3,0.8-5.7,2.3c-1.4,1.5-2.1,3.8-2.1,6.7v15.2h-7v-29.9h6.7v3.8c1.1-1.3,2.5-2.4,4.2-3.1c1.7-0.7,3.5-1.1,5.6-1.1
				c2.2,0,4.2,0.4,6,1.3c1.7,0.8,3.1,2.1,4.1,3.7c1.2-1.6,2.8-2.8,4.8-3.7c1.9-0.9,4.1-1.3,6.4-1.3
				C245.2,103.1,248.2,104.2,250.4,106.4z"/>
			<path class="st1" d="M291.4,103.5v29.9h-6.7v-3.9c-1.2,1.4-2.6,2.5-4.3,3.2c-1.7,0.7-3.6,1.1-5.6,1.1c-2.9,0-5.5-0.6-7.8-1.9
				c-2.3-1.3-4.1-3.1-5.4-5.4c-1.3-2.3-1.9-5-1.9-8.1c0-3.1,0.6-5.7,1.9-8c1.3-2.3,3.1-4.1,5.4-5.3c2.3-1.3,4.9-1.9,7.8-1.9
				c1.9,0,3.7,0.3,5.3,1c1.6,0.7,3,1.7,4.2,3v-3.6H291.4z M282,125.2c1.7-1.7,2.5-4,2.5-6.8s-0.8-5.1-2.5-6.8s-3.8-2.6-6.4-2.6
				s-4.7,0.9-6.4,2.6s-2.5,4-2.5,6.8s0.8,5.1,2.5,6.8c1.7,1.7,3.8,2.6,6.4,2.6S280.3,126.9,282,125.2z"/>
			<path class="st1" d="M323.7,105c2.3,1.3,4.1,3.1,5.4,5.4c1.3,2.3,1.9,5,1.9,8.1c0,3-0.6,5.7-1.8,8c-1.2,2.3-3,4.1-5.2,5.4
				c-2.2,1.3-4.8,1.9-7.7,1.9c-4.1,0-7.4-1.3-9.7-4v14.4h-7.1v-25.7c0-3,0.7-5.7,2-8c1.3-2.3,3.2-4.1,5.6-5.4s5.2-1.9,8.4-1.9
				C318.6,103.1,321.3,103.8,323.7,105z M321.6,125.2c1.6-1.7,2.5-4,2.5-6.7c0-2.8-0.8-5-2.5-6.8s-3.8-2.6-6.4-2.6
				c-2.7,0-4.8,0.9-6.4,2.6c-1.6,1.7-2.4,4-2.4,6.8s0.8,5.1,2.4,6.8c1.6,1.7,3.7,2.6,6.4,2.6C317.8,127.8,320,127,321.6,125.2z"/>
			<path class="st1" d="M366.4,103.5v29.9h-6.7v-3.8c-1.1,1.3-2.5,2.4-4.2,3.1c-1.7,0.7-3.5,1.1-5.4,1.1c-4,0-7.1-1.1-9.5-3.3
				c-2.3-2.2-3.5-5.5-3.5-9.9v-17.1h7v16.1c0,2.7,0.6,4.7,1.8,6s3,2,5.2,2c2.5,0,4.4-0.8,5.9-2.3c1.5-1.5,2.2-3.8,2.2-6.7v-15.1
				H366.4z"/>
			<path class="st1" d="M410.7,129.3c-3.1,2.7-7.5,4.2-13.2,4.5v10.4h-6.6v-10.4c-5.7-0.4-10.1-1.9-13.2-4.5
				c-3.1-2.7-4.6-6.3-4.6-11c0-4.6,1.5-8.2,4.6-10.8c3.1-2.6,7.4-4.1,13.2-4.5V91.8h6.6v11.3c5.7,0.4,10.1,1.9,13.2,4.5
				c3.1,2.6,4.6,6.2,4.6,10.8C415.4,123,413.8,126.6,410.7,129.3z M382.7,125.1c1.8,1.6,4.5,2.6,8.2,2.9v-19
				c-3.7,0.3-6.4,1.2-8.2,2.8c-1.8,1.6-2.7,3.8-2.7,6.6C380.1,121.2,381,123.5,382.7,125.1z M408.5,118.4c0-2.8-0.9-5-2.7-6.6
				c-1.8-1.5-4.6-2.5-8.3-2.8v19C404.9,127.3,408.5,124.1,408.5,118.4z"/>
		</g>
	</g>
	<polygon class="st4" points="106.7,133.1 106.7,106.7 133.1,106.7 	"/>
</g>
</svg>
